<svg width="20" height="20" viewBox="0 0 20 20" fill="none" xmlns="http://www.w3.org/2000/svg">
<g clip-path="url(#clip0_643_237)">
<path fill-rule="evenodd" clip-rule="evenodd" d="M15.9473 2.61377C16.1382 2.4229 16.3971 2.31567 16.667 2.31567C16.9369 2.31567 17.1958 2.4229 17.3867 2.61377C17.5775 2.80464 17.6848 3.06351 17.6848 3.33344C17.6848 3.60337 17.5775 3.86224 17.3867 4.05311L9.61689 11.8229L7.69777 12.3027L8.17755 10.3835L15.9473 2.61377ZM16.667 0.815674C15.9992 0.815674 15.3588 1.08094 14.8867 1.55311L6.97 9.46978C6.87388 9.5659 6.80569 9.68633 6.77272 9.81821L5.93939 13.1515C5.87549 13.4071 5.95038 13.6775 6.13666 13.8638C6.32295 14.0501 6.59331 14.1249 6.84889 14.061L10.1822 13.2277C10.3141 13.1947 10.4345 13.1266 10.5307 13.0304L18.4473 5.11377C18.9195 4.6416 19.1848 4.00119 19.1848 3.33344C19.1848 2.66569 18.9195 2.02528 18.4473 1.55311C17.9751 1.08094 17.3347 0.815674 16.667 0.815674ZM3.33366 2.58344C2.69272 2.58344 2.07803 2.83805 1.62482 3.29127C1.1716 3.74448 0.916992 4.35917 0.916992 5.00011V16.6668C0.916992 17.3077 1.1716 17.9224 1.62482 18.3756C2.07803 18.8288 2.69272 19.0834 3.33366 19.0834H15.0003C15.6413 19.0834 16.256 18.8288 16.7092 18.3756C17.1624 17.9224 17.417 17.3077 17.417 16.6668V10.8334C17.417 10.4192 17.0812 10.0834 16.667 10.0834C16.2528 10.0834 15.917 10.4192 15.917 10.8334V16.6668C15.917 16.9099 15.8204 17.143 15.6485 17.315C15.4766 17.4869 15.2434 17.5834 15.0003 17.5834H3.33366C3.09054 17.5834 2.85739 17.4869 2.68548 17.315C2.51357 17.143 2.41699 16.9099 2.41699 16.6668V5.00011C2.41699 4.75699 2.51357 4.52384 2.68548 4.35193C2.85739 4.18002 3.09054 4.08344 3.33366 4.08344H9.16699C9.5812 4.08344 9.91699 3.74766 9.91699 3.33344C9.91699 2.91923 9.5812 2.58344 9.16699 2.58344H3.33366Z" fill="black"/>
</g>
<defs>
<clipPath id="clip0_643_237">
<rect width="20" height="20" fill="white"/>
</clipPath>
</defs>
</svg>
